HIERARCHY
ROOT Hips
{
	OFFSET 0.00000 0.00000 0.00000
	CHANNELS 6 Xposition Yposition Zposition Zrotation Yrotation Xrotation 
	JOINT LHipJoint
	{
		OFFSET 0 0 0
		CHANNELS 3 Zrotation Yrotation Xrotation
		JOINT LeftHip
		{
			OFFSET 3.13874 -1.57224 1.49786
			CHANNELS 3 Zrotation Yrotation Xrotation
			JOINT LeftKnee
			{
				OFFSET 2.10955 -5.79594 0.00000
				CHANNELS 3 Zrotation Yrotation Xrotation
				JOINT LeftAnkle
				{
					OFFSET 2.41843 -6.64458 0.00000
					CHANNELS 3 Zrotation Yrotation Xrotation
					JOINT LeftToe
					{
						OFFSET 0.04713 -0.12948 1.66229
						CHANNELS 3 Zrotation Yrotation Xrotation
						End Site
						{
							OFFSET 0.00000 -0.00000 0.85167
						}
					}
				}
			}
		}
	}
	JOINT RHipJoint
	{
		OFFSET 0 0 0
		CHANNELS 3 Zrotation Yrotation Xrotation
		JOINT RightHip
		{
			OFFSET -3.13988 -1.57224 1.49786
			CHANNELS 3 Zrotation Yrotation Xrotation
			JOINT RightKnee
			{
				OFFSET -2.15006 -5.90725 0.00000
				CHANNELS 3 Zrotation Yrotation Xrotation
				JOINT RightAnkle
				{
					OFFSET -2.34496 -6.44273 0.00000
					CHANNELS 3 Zrotation Yrotation Xrotation
					JOINT RightToe
					{
						OFFSET -0.08699 -0.23900 1.55223
						CHANNELS 3 Zrotation Yrotation Xrotation
						End Site
						{
							OFFSET -0.00000 -0.00000 0.80281
						}
					}
				}
			}
		}
	}
	JOINT lowerback
	{
		OFFSET 0 0 0
		CHANNELS 3 Zrotation Yrotation Xrotation
		JOINT Chest
		{
			OFFSET 0.01292 1.96517 -0.16495
			CHANNELS 3 Zrotation Yrotation Xrotation
			JOINT Chest2
			{
				OFFSET 0.02122 1.88666 0.19706
				CHANNELS 3 Zrotation Yrotation Xrotation
				JOINT lowerneck
				{
					OFFSET 0 0 0
					CHANNELS 3 Zrotation Yrotation Xrotation
					JOINT Neck
					{
						OFFSET -0.01683 1.81591 0.07903
						CHANNELS 3 Zrotation Yrotation Xrotation
						JOINT Head
						{
							OFFSET 0.00815 1.74013 -0.47700
							CHANNELS 3 Zrotation Yrotation Xrotation
							End Site
							{
								OFFSET -0.00204 1.83225 -0.16933
							}
						}
					}
				}
				JOINT LeftCollar
				{
					OFFSET 0 0 0
					CHANNELS 3 Zrotation Yrotation Xrotation
					JOINT LeftShoulder
					{
						OFFSET 3.38482 1.41533 0.19802
CHANNELS 3 Zrotation Xrotation Yrotation
						JOINT LeftElbow
						{
OFFSET 0 -4.327120 0.000000
CHANNELS 3 Zrotation Xrotation Yrotation
							JOINT LeftWrist
							{
OFFSET 0 -3.285870 -0.000000
CHANNELS 3 Zrotation Xrotation Yrotation
								JOINT lhand
								{
									OFFSET 0 0 0
CHANNELS 3 Zrotation Xrotation Yrotation
									JOINT LFingers
									{
OFFSET 0 -0.433160 -0.000000
CHANNELS 3 Zrotation Xrotation Yrotation
										End Site
										{
OFFSET 0 -0.349220 -0.000000
										}
									}
								}
								JOINT LThumb
								{
OFFSET 0 0.000000 0.000000
CHANNELS 3 Zrotation Xrotation Yrotation
									End Site
									{
OFFSET 0 -0.354560 0.354560
									}
								}
							}
						}
					}
				}
				JOINT RightCollar
				{
					OFFSET 0 0 0
					CHANNELS 3 Zrotation Yrotation Xrotation
					JOINT RightShoulder
					{
						OFFSET -3.09725 1.62858 -0.14144
CHANNELS 3 Zrotation Xrotation Yrotation
						JOINT RightElbow
						{
OFFSET 0 -4.291040 0.000000
CHANNELS 3 Zrotation Xrotation Yrotation
							JOINT RightWrist
							{
OFFSET 0 -3.227200 -0.000000
CHANNELS 3 Zrotation Xrotation Yrotation
								JOINT rhand
								{
									OFFSET 0 0 0
CHANNELS 3 Zrotation Xrotation Yrotation
									JOINT RFingers
									{
OFFSET 0 -0.543620 -0.000000
CHANNELS 3 Zrotation Xrotation Yrotation
										End Site
										{
OFFSET 0 -0.438280 -0.000000
										}
									}
								}
								JOINT RThumb
								{
OFFSET 0 0.000000 0.000000
CHANNELS 3 Zrotation Xrotation Yrotation
									End Site
									{
OFFSET 0 -0.444970 0.444970
									}
								}
							}
						}
					}
				}
			}
		}
	}
}
MOTION
Frames: 6
Frame Time: 0.008333333333333333
6.140000 15.811500 2.371000 -171.638000 -54.802200 -178.863000 0.000000 0.000000 0.000000 -25.530500 -13.852100 2.842500 0.509500 4.575400 12.701400 3.296600 -7.627700 -32.981400 7.112300 -15.425700 -49.297700 0.000000 0.000000 0.000000 32.273500 20.836100 1.254300 -0.272200 3.355900 -9.271300 -2.841600 -18.660200 -42.529500 -2.570700 -9.965400 28.864800 2.345700 1.547000 9.267900 2.454900 2.478200 -9.183300 0.926900 0.932500 -15.487700 -6.915300 -7.492200 -14.775200 2.871400 -10.742900 27.862000 0.545500 -5.524900 12.161000 -0.000000 -0.000000 0.000000 5.464700 17.233000 -21.038000 21.319200 -32.199000 6.219100 47.732100 38.587500 -33.438600 0.000000 0.000000 0.000000 -7.125000 0.000000 0.000000 27.662200 72.839800 -18.655000 -0.000000 -0.000000 0.000000 -22.631000 20.592200 43.499500 -24.568100 -35.759200 -8.036100 -37.699900 -2.032800 21.476400 0.000000 0.000000 0.000000 7.125000 0.000000 -0.000000 -9.970300 56.140300 2.743600
6.182118 15.820924 2.484277 -171.851476 -54.656902 -178.357197 0.000000 0.000000 0.000000 -26.016590 -14.599169 2.577771 0.486710 4.473278 12.412054 3.377663 -6.817165 -33.490665 7.257214 -15.544650 -49.840525 0.000000 0.000000 0.000000 31.588839 21.166699 0.425879 -0.265469 3.314263 -9.154946 -2.966897 -18.320754 -42.809615 -2.614261 -10.042809 29.115394 2.274830 1.513344 9.367907 2.309217 2.417908 -9.044829 0.810931 0.909518 -15.376731 -6.750962 -7.521048 -15.312447 2.969003 -10.780595 27.785360 0.529345 -5.488167 12.237351 0.000000 0.000000 0.000000 5.529320 15.998687 -19.702526 20.040653 -30.690053 5.552709 43.770297 35.884531 -32.896256 0.000000 0.000000 0.000000 -7.125000 0.000000 0.000000 19.080954 71.010447 -11.987247 0.000000 0.000000 0.000000 -22.309440 20.087262 42.858688 -24.644259 -35.838148 -8.080718 -33.979267 -2.183291 22.374152 0.000000 0.000000 0.000000 7.125000 0.000000 0.000000 -5.607509 56.292329 1.555925
6.226544 15.828039 2.593491 -172.033563 -54.443840 -177.853240 0.000000 0.000000 0.000000 -26.367431 -15.084694 2.180285 0.460227 4.351399 12.067500 3.402965 -6.830960 -33.620954 7.083160 -15.401410 -49.187891 0.000000 0.000000 0.000000 30.926796 21.586941 -0.447594 -0.255691 3.253238 -8.984677 -2.970977 -18.357515 -42.855236 -2.543805 -9.916928 28.708296 2.136473 1.513108 9.476130 2.197231 2.391497 -9.005049 0.765217 0.907215 -15.397134 -6.587547 -7.520815 -15.814244 2.899597 -10.774160 27.980881 0.453643 -5.460666 12.401592 0.000000 0.000000 0.000000 5.712202 15.466748 -18.931962 19.317322 -29.810363 5.188022 39.901922 33.029418 -32.283195 0.000000 0.000000 0.000000 -7.125000 0.000000 0.000000 12.125472 69.102714 -7.065275 0.000000 0.000000 0.000000 -22.183877 19.939605 43.018849 -24.950388 -36.153159 -8.260679 -32.306857 -3.031171 22.736445 0.000000 0.000000 0.000000 7.125000 0.000000 0.000000 -3.655391 56.315202 1.015231
6.271686 15.834794 2.695813 -172.182491 -54.228580 -177.406873 0.000000 0.000000 0.000000 -26.609920 -15.415471 1.731267 0.436068 4.237370 11.745513 3.388166 -7.216949 -33.502157 6.947866 -15.287701 -48.676566 0.000000 0.000000 0.000000 30.315775 22.000914 -1.294008 -0.244371 3.180789 -8.782613 -2.978952 -18.391783 -42.915170 -2.402867 -9.658542 27.878423 1.942753 1.521960 9.587969 2.099477 2.368795 -8.986450 0.766136 0.912763 -15.449015 -6.855250 -7.618383 -15.109369 3.293699 -10.975856 27.489786 0.648517 -5.546538 12.119651 0.000000 0.000000 0.000000 6.076080 15.383333 -18.760991 18.943754 -29.348549 5.003377 36.322076 30.090291 -31.686392 0.000000 0.000000 0.000000 -7.125000 0.000000 0.000000 6.607026 67.331609 -3.581791 0.000000 0.000000 0.000000 -22.058236 19.976868 43.429455 -25.425171 -36.634953 -8.542535 -31.186638 -4.252866 23.155570 0.000000 0.000000 0.000000 7.125000 0.000000 0.000000 -2.311063 56.526565 0.652572
6.314765 15.840594 2.794842 -172.430224 -53.966228 -176.911327 0.000000 0.000000 0.000000 -26.895463 -15.756192 1.331834 0.412971 4.125024 11.428731 3.397257 -6.659739 -33.611954 7.011424 -15.341451 -48.917522 0.000000 0.000000 0.000000 29.607022 22.438903 -2.164572 -0.227172 3.067214 -8.466088 -3.097143 -17.996871 -43.124977 -2.288555 -9.442460 27.189776 1.686406 1.559580 9.711518 1.960684 2.372110 -8.936578 0.749179 0.936015 -15.470735 -6.785491 -7.669781 -15.451603 3.448893 -11.076430 27.481848 0.664035 -5.550382 12.197497 0.000000 0.000000 0.000000 6.545467 15.461749 -18.838251 18.814035 -29.186928 4.939833 32.805362 27.265458 -31.260623 0.000000 0.000000 0.000000 -7.125000 0.000000 0.000000 1.738896 65.814973 -0.897539 0.000000 0.000000 0.000000 -21.805936 19.961263 43.421228 -25.815662 -37.025754 -8.776545 -29.750273 -4.798243 23.718509 0.000000 0.000000 0.000000 7.125000 0.000000 0.000000 -0.566756 56.820350 0.162356
6.357476 15.845621 2.893017 -172.701476 -53.685986 -176.368816 0.000000 0.000000 0.000000 -27.176281 -16.071280 0.910927 0.388372 4.001412 11.080689 3.408107 -5.536998 -33.820420 7.229419 -15.521505 -49.735815 0.000000 0.000000 0.000000 28.796628 22.899670 -3.155604 -0.201999 2.893142 -7.981459 -3.341088 -17.138222 -43.542517 -2.073764 -9.015436 25.845400 1.306046 1.571694 9.794444 1.900351 2.325689 -8.882409 0.902431 0.955129 -15.470430 -6.794561 -7.694819 -15.639089 3.617567 -11.125291 27.380813 0.713974 -5.542132 12.210762 0.000000 0.000000 0.000000 6.776084 15.703325 -18.707761 18.914516 -29.312181 4.988965 26.497343 23.070142 -30.833179 0.000000 0.000000 0.000000 -7.125000 0.000000 0.000000 -6.119437 63.594408 2.690034 0.000000 0.000000 0.000000 -21.736559 19.879569 43.635270 -26.299380 -37.502108 -9.069648 -27.571606 -6.068526 23.930663 0.000000 0.000000 0.000000 7.125000 0.000000 0.000000 1.901035 56.564968 -0.535433
